# xmcd
#
# Track frame offsets: 
#        150
#        27436
#        55632
#        78172
#        99039
#        122830
#        140911
#        163111
#        197027
#
# Disc length: 2881 seconds
#
# Revision: 0
# Processed by: cddbd v1.5.2PL0 Copyright (c) Steve Scherf et al.
# Submitted via: ExactAudioCopy v0.95a5
#
DISCID=710b3f09
DTITLE=Prince - MPLSOUND
DYEAR=2009
DGENRE=Funk
TTITLE0=(There'll never B) another like Me
TTITLE1=Chocolate Box
TTITLE2=Dance 4 Me
TTITLE3=U're gonna C Me
TTITLE4=Here
TTITLE5=Valentina
TTITLE6=Better with Time
TTITLE7=Ol' Skool Company
TTITLE8=No more Candy 4 U
EXTD=
EXTT0=
EXTT1=
EXTT2=
EXTT3=
EXTT4=
EXTT5=
EXTT6=
EXTT7=
EXTT8=
PLAYORDER=
